<svg width="25" height="25" viewBox="0 0 25 25" fill="none" xmlns="http://www.w3.org/2000/svg">
<path fill-rule="evenodd" clip-rule="evenodd" d="M12.5 24.5C19.127 24.5 24.5 19.1274 24.5 12.5C24.5 5.87259 19.127 0.5 12.5 0.5C5.87305 0.5 0.5 5.87259 0.5 12.5C0.5 19.1274 5.87305 24.5 12.5 24.5ZM15.417 9.58334V10.1667H14.25V9.58334C14.25 8.6185 13.4648 7.83334 12.5 7.83334C11.5352 7.83334 10.75 8.6185 10.75 9.58334V11.3333H16C16.6436 11.3333 17.167 11.8566 17.167 12.5V17.1667C17.167 17.8101 16.6436 18.3333 16 18.3333H9C8.35645 18.3333 7.83301 17.8101 7.83301 17.1667V12.5C7.83301 11.8566 8.35645 11.3333 9 11.3333H9.58301V9.58334C9.58301 7.9751 10.8916 6.66666 12.5 6.66666C14.1084 6.66666 15.417 7.9751 15.417 9.58334Z" fill="white" fill-opacity="0.8"/>
</svg>
