<svg width="24" height="24" viewBox="0 0 24 24" fill="none" xmlns="http://www.w3.org/2000/svg">
<path fill-rule="evenodd" clip-rule="evenodd" d="M12 24C18.6274 24 24 18.6274 24 12C24 5.37259 18.6274 0 12 0C5.37256 0 0 5.37259 0 12C0 18.6274 5.37256 24 12 24ZM7.62677 7.69908L7.625 8.9375V15.0648C7.625 15.5676 7.82477 16.0499 8.1803 16.4054C8.53583 16.7609 9.01801 16.9607 9.52081 16.9607H11.8448C12.0122 17.2808 12.2243 17.5754 12.4749 17.8357H9.52081C8.78595 17.8357 8.08118 17.5437 7.56158 17.0241C7.04193 16.5045 6.75 15.7997 6.75 15.0648V8.9375C6.74994 8.66571 6.83423 8.40059 6.99127 8.17876C7.14832 7.95692 7.37036 7.78932 7.62677 7.69908ZM14.1006 11.5803C14.7443 11.384 15.4286 11.3626 16.0833 11.5182V7.47917C16.0833 7.30681 16.0494 7.13614 15.9834 6.9769C15.9175 6.81766 15.8208 6.67296 15.6989 6.55109C15.577 6.42921 15.4324 6.33253 15.2731 6.26657C15.1139 6.20062 14.9432 6.16667 14.7708 6.16667H9.52081C9.17273 6.16667 8.83887 6.30495 8.59277 6.55109C8.34662 6.79723 8.20831 7.13107 8.20831 7.47917V15.0625C8.20831 15.4106 8.34662 15.7444 8.59277 15.9906C8.83887 16.2367 9.17273 16.375 9.52081 16.375H11.5992C11.392 15.7348 11.3588 15.0509 11.5032 14.3937C11.6475 13.7364 11.9642 13.1294 12.4207 12.635C12.8771 12.1406 13.457 11.7765 14.1006 11.5803ZM17.477 12.9397C16.8753 12.338 16.0593 12 15.2083 12C14.3574 12 13.5414 12.338 12.9397 12.9397C12.338 13.5414 12 14.3574 12 15.2083C12 16.0592 12.338 16.8753 12.9397 17.477C13.5414 18.0786 14.3574 18.4167 15.2083 18.4167C16.0593 18.4167 16.8753 18.0786 17.477 17.477C18.0787 16.8753 18.4167 16.0592 18.4167 15.2083C18.4167 14.3574 18.0787 13.5414 17.477 12.9397ZM15.5006 15.5V16.9601H15.5C15.5 17.0374 15.4693 17.1116 15.4146 17.1663C15.3599 17.221 15.2857 17.2518 15.2083 17.2518C15.131 17.2518 15.0568 17.221 15.0021 17.1663C14.9474 17.1116 14.9167 17.0374 14.9167 16.9601V15.5H13.456C13.3787 15.5 13.3044 15.4693 13.2498 15.4146C13.1951 15.3599 13.1643 15.2857 13.1643 15.2083C13.1643 15.131 13.1951 15.0568 13.2498 15.0021C13.3044 14.9474 13.3787 14.9167 13.456 14.9167H14.9167V13.4583C14.9167 13.381 14.9474 13.3068 15.0021 13.2521C15.0568 13.1974 15.131 13.1667 15.2083 13.1667C15.2857 13.1667 15.3599 13.1974 15.4146 13.2521C15.4693 13.3068 15.5 13.381 15.5 13.4583V14.9167H16.9566C17.0339 14.9167 17.1082 14.9474 17.1628 15.0021C17.2175 15.0568 17.2482 15.131 17.2482 15.2083C17.2482 15.2857 17.2175 15.3599 17.1628 15.4146C17.1315 15.446 17.0936 15.4695 17.0525 15.4838C17.0219 15.4944 16.9896 15.5 16.9566 15.5H15.5006Z" fill="white" fill-opacity="0.8"/>
</svg>
