<svg width="16" height="16" viewBox="0 0 16 16" fill="none" xmlns="http://www.w3.org/2000/svg">
<path d="M13.3337 7.99998C13.3337 7.26465 12.7357 6.66665 12.0003 6.66665H11.3337V4.66665C11.3337 2.82865 9.83833 1.33331 8.00033 1.33331C6.16233 1.33331 4.66699 2.82865 4.66699 4.66665V6.66665H4.00033C3.26499 6.66665 2.66699 7.26465 2.66699 7.99998V13.3333C2.66699 14.0686 3.26499 14.6666 4.00033 14.6666H12.0003C12.7357 14.6666 13.3337 14.0686 13.3337 13.3333V7.99998ZM6.00033 4.66665C6.00033 3.56398 6.89766 2.66665 8.00033 2.66665C9.10299 2.66665 10.0003 3.56398 10.0003 4.66665V6.66665H6.00033V4.66665Z" fill="white"/>
</svg>
