<svg width="45" height="45" viewBox="0 0 45 45" fill="none" xmlns="http://www.w3.org/2000/svg">
<path d="M42.0246 35.3531L28.1252 12.1922V2.8125H29.5315C30.3049 2.8125 30.9377 2.17969 30.9377 1.40625C30.9377 0.632812 30.3049 0 29.5315 0H15.469C14.6955 0 14.0627 0.632812 14.0627 1.40625C14.0627 2.17969 14.6955 2.8125 15.469 2.8125H16.8752V12.1922L2.97586 35.3531C-0.207886 40.6575 2.25024 45 8.43774 45H36.5627C42.7502 45 45.2084 40.6603 42.0246 35.3531ZM10.5921 28.125L19.6877 12.9656V2.8125H25.3127V12.9656L34.4084 28.125H10.5921Z" fill="white"/>
</svg>
