<svg width="24" height="24" viewBox="0 0 24 24" fill="none" xmlns="http://www.w3.org/2000/svg">
<path fill-rule="evenodd" clip-rule="evenodd" d="M12 24C18.6274 24 24 18.6274 24 12C24 5.37259 18.6274 0 12 0C5.37256 0 0 5.37259 0 12C0 18.6274 5.37256 24 12 24ZM7.91669 9.08333H8.5H16.0833V16.6667C16.0833 16.9761 15.9604 17.2728 15.7416 17.4916C15.5228 17.7104 15.2261 17.8333 14.9167 17.8333H9.08331C8.77393 17.8333 8.47717 17.7104 8.25836 17.4916C8.03961 17.2728 7.91669 16.9761 7.91669 16.6667V9.08333ZM9.66669 10.8333V16.0833H10.8333V10.8333H9.66669ZM13.1667 10.8333V16.0833H14.3333V10.8333H13.1667ZM13.75 6.16667L14.6938 7.33333H17.25V8.5H6.75V7.33333H9.30615L10.25 6.16667H13.75Z" fill="white" fill-opacity="0.8"/>
</svg>
