<svg width="24" height="24" viewBox="0 0 24 24" fill="none" xmlns="http://www.w3.org/2000/svg">
<path fill-rule="evenodd" clip-rule="evenodd" d="M12 24C18.6274 24 24 18.6274 24 12C24 5.37259 18.6274 0 12 0C5.37256 0 0 5.37259 0 12C0 18.6274 5.37256 24 12 24ZM15.5 10.8333C16.1434 10.8333 16.6667 11.3566 16.6667 12V16.6667C16.6667 17.3101 16.1434 17.8333 15.5 17.8333H8.5C7.85657 17.8333 7.33331 17.3101 7.33331 16.6667V12C7.33331 11.3566 7.85657 10.8333 8.5 10.8333H9.08331V9.08333C9.08331 7.47508 10.3917 6.16667 12 6.16667C13.6083 6.16667 14.9167 7.47508 14.9167 9.08333V10.8333H15.5ZM12 7.33333C11.0352 7.33333 10.25 8.1185 10.25 9.08333V10.8333H13.75V9.08333C13.75 8.1185 12.9648 7.33333 12 7.33333Z" fill="white" fill-opacity="0.8"/>
</svg>
